<?xml version="1.0" encoding="iso-8859-1"?>
<!-- Uploaded to: SVG Repo, www.svgrepo.com, Generator: SVG Repo Mixer Tools -->
<svg fill="#000000" height="800px" width="800px" version="1.1" id="Layer_1" xmlns="http://www.w3.org/2000/svg" xmlns:xlink="http://www.w3.org/1999/xlink" 
	 viewBox="0 0 512.001 512.001" xml:space="preserve">
<g>
	<g>
		<path d="M339.617,34.509c-3.435-3.115-8.746-2.854-11.861,0.581c-3.115,3.436-2.854,8.746,0.581,11.861
			C369.791,84.532,394.54,149.5,394.54,220.739c0,112.457-62.148,203.947-138.538,203.947s-138.537-91.49-138.537-203.947
			S179.612,16.793,256.002,16.793c17.045,0,33.701,4.544,49.504,13.505c4.033,2.286,9.158,0.872,11.445-3.163
			c2.287-4.034,0.872-9.158-3.163-11.445C295.429,5.279,275.987,0,256.002,0c-42.085,0-81.435,23.373-110.802,65.813
			c-28.714,41.497-44.528,96.518-44.528,154.927s15.814,113.431,44.528,154.927c20.714,29.936,46.4,50.369,74.504,59.82v20.668
			c-11.65,0.61-22.61,5.43-31.03,13.849c-8.978,8.964-13.923,20.898-13.923,33.599c0,4.637,3.759,8.397,8.397,8.397H266.1
			c4.637,0,8.397-3.759,8.397-8.397s-3.759-8.397-8.397-8.397h-73.4c1.408-4.99,4.077-9.561,7.845-13.323
			c6.927-6.927,16.534-10.082,26.353-8.662c0.05,0.008,0.101,0.007,0.151,0.013c0.165,0.02,0.33,0.034,0.497,0.045
			c0.135,0.009,0.27,0.018,0.405,0.02c0.05,0.001,0.099,0.008,0.149,0.008h55.803c0.048,0,0.095-0.007,0.144-0.007
			c0.139-0.002,0.278-0.011,0.417-0.021c0.165-0.011,0.328-0.023,0.489-0.045c0.05-0.007,0.102-0.007,0.152-0.013
			c9.823-1.419,19.428,1.736,26.358,8.666c3.765,3.759,6.433,8.329,7.84,13.319h-26.631c-4.637,0-8.397,3.759-8.397,8.397
			c0,4.637,3.759,8.397,8.397,8.397h36.181c4.637,0,8.397-3.76,8.397-8.397c0-12.702-4.945-24.635-13.918-33.594
			c-8.422-8.422-19.383-13.243-31.034-13.853v-20.668c28.105-9.451,53.79-29.884,74.504-59.82
			c28.714-41.496,44.528-96.518,44.528-154.927C411.333,144.84,384.523,75.221,339.617,34.509z M236.497,456.515v-16.731
			c6.416,1.125,12.927,1.696,19.505,1.696c6.577,0,13.089-0.571,19.505-1.696v16.731H236.497z"/>
	</g>
</g>
<g>
	<g>
		<path d="M339.347,92.851c-22.591-32.647-52.19-50.627-83.345-50.627c-31.155,0-60.753,17.979-83.344,50.627
			c-23.525,33.997-36.481,79.416-36.481,127.889c0,48.473,12.956,93.892,36.481,127.889c22.59,32.647,52.189,50.627,83.344,50.627
			c31.155,0,60.755-17.98,83.345-50.627c23.525-33.997,36.481-79.416,36.481-127.889
			C375.827,172.267,362.872,126.848,339.347,92.851z M263.59,311.981c1.658,2.073,4.099,3.152,6.562,3.152
			c1.839,0,3.692-0.602,5.241-1.842l82.209-65.776c-3.753,34.785-14.807,66.621-32.062,91.557
			c-19.36,27.98-44.056,43.389-69.535,43.389c-15.852,0-31.399-5.967-45.548-17.213l44.329-35.469
			c3.621-2.896,4.207-8.181,1.31-11.802c-2.896-3.622-8.181-4.208-11.802-1.31l-46.225,36.986c-4.038-4.394-7.915-9.259-11.6-14.582
			c-12.406-17.927-21.603-39.425-27.192-63.016L288.119,172.96c3.621-2.897,4.207-8.182,1.31-11.802
			c-2.897-3.62-8.18-4.206-11.802-1.31l-121.948,97.58c-1.12-7.438-1.893-15.036-2.319-22.748l32.755-26.209
			c3.621-2.897,4.207-8.182,1.31-11.802c-2.897-3.622-8.182-4.208-11.802-1.31l-22.541,18.036
			c1.22-42.296,12.961-81.474,33.385-110.989c19.362-27.98,44.057-43.389,69.534-43.389c19.964,0.001,39.444,9.462,56.255,27.015
			l-114.664,91.75c-3.621,2.897-4.207,8.182-1.31,11.802c1.658,2.072,4.099,3.15,6.562,3.15c1.839,0,3.692-0.602,5.241-1.842
			l114.951-91.98c0.843,1.144,1.679,2.303,2.502,3.493c2.816,4.07,5.463,8.327,7.944,12.747l-32.525,26.026
			c-3.621,2.897-4.207,8.182-1.31,11.802c1.658,2.072,4.099,3.15,6.562,3.15c1.839,0,3.692-0.602,5.241-1.842l29.692-23.759
			c11.649,26.5,17.894,57.547,17.894,90.207c0,1.386-0.012,2.77-0.035,4.15L264.9,300.178
			C261.279,303.074,260.693,308.359,263.59,311.981z"/>
	</g>
</g>
</svg>